#!OML:ASF E:\Style4\Style4.ASF
:FULLY-SPECIFIED
:DEGREES
2322
root -0.632791 16.9279 -1.67705 6.52241 12.9435 3.29603
lowerback 22.4454 3.69895 -0.55345
upperback 12.2328 4.78624 -0.381115
thorax 0.877413 2.4473 -1.09364
lowerneck 7.18488 -4.07876 -3.56504
upperneck -9.04655 -5.40453 5.02319
head -4.02464 -2.80083 2.63695
rclavicle 1.90833e-014 -1.59028e-015
rhumerus 23.8129 12.1656 -80.0351
rradius 122.876
rwrist 23.4903
rhand 18.2301 -2.20831
rfingers 7.12502
rthumb 42.8829 -26.4955
lclavicle 1.90833e-014 -1.59028e-015
lhumerus 22.9717 -20.8237 74.106
lradius 117.084
lwrist -13.9924
lhand 14.8554 36.7136
lfingers 7.12502
lthumb 39.7155 62.0248
rfemur -33.478 -7.7831 18.6888
rtibia 54.2888
rfoot -25.2808 -17.5218
rtoes -8.12356
lfemur -35.4948 -4.61769 -19.968
ltibia 49.3399
lfoot -18.8087 1.89665
ltoes -15.1985
2323
root -0.622641 16.9175 -1.67933 6.49029 12.8338 3.37689
lowerback 22.3815 3.63159 -0.742301
upperback 12.3355 4.66966 -0.256341
thorax 0.994377 2.37532 -0.822753
lowerneck 7.31704 -4.02304 -3.92647
upperneck -9.49148 -5.33303 5.30398
head -3.77095 -2.78642 2.53154
rclavicle -2.3059e-014 1.74931e-014
rhumerus 24.9529 12.3162 -79.8334
rradius 122.02
rwrist 23.5418
rhand 18.0395 -2.68332
rfingers 7.12502
rthumb 42.7045 -27.0328
lclavicle -2.3059e-014 1.74931e-014
lhumerus 22.377 -20.7042 74.4479
lradius 118.088
lwrist -13.9924
lhand 15.4235 36.5405
lfingers 7.12502
lthumb 40.2502 61.6906
rfemur -33.5712 -7.72553 18.5517
rtibia 54.5342
rfoot -25.2997 -17.5389
rtoes -8.45518
lfemur -35.5348 -4.51606 -20.1147
ltibia 49.5357
lfoot -18.9001 1.84635
ltoes -14.7983
2324
root -0.612313 16.9104 -1.68258 6.40782 12.7049 3.41281
lowerback 22.4104 3.62684 -0.765821
upperback 12.4515 4.66127 -0.191352
thorax 1.10132 2.36816 -0.735499
lowerneck 7.23717 -4.05437 -4.03948
upperneck -9.46169 -5.3822 5.34979
head -3.74179 -2.80862 2.56294
rclavicle -2.3059e-014 2.8625e-014
rhumerus 25.979 12.229 -79.7799
rradius 121.007
rwrist 23.7473
rhand 18.346 -3.13686
rfingers 7.12502
rthumb 42.9913 -27.3859
lclavicle -2.3059e-014 2.8625e-014
lhumerus 22.0358 -20.8691 74.6651
lradius 119.139
lwrist -13.6972
lhand 15.6191 36.9013
lfingers 7.12502
lthumb 40.4341 61.9949
rfemur -33.5962 -7.65816 18.4519
rtibia 54.7214
rfoot -25.3933 -17.3894
rtoes -8.44887
lfemur -35.4997 -4.41437 -20.2119
ltibia 49.6859
lfoot -18.9629 1.81394
ltoes -14.3895
2325
root -0.60309 16.9042 -1.68598 6.3847 12.5962 3.42635
lowerback 22.416 3.61374 -0.770695
upperback 12.5505 4.64554 -0.126129
thorax 1.20219 2.35796 -0.656157
lowerneck 7.11532 -4.08318 -4.16101
upperneck -9.09063 -5.46044 5.18069
head -4.0057 -2.81503 2.80062
rclavicle 1.82882e-014 -9.54166e-015
rhumerus 26.8907 12.1168 -79.8429
rradius 119.861
rwrist 23.896
rhand 18.4422 -3.06452
rfingers 7.12502
rthumb 43.0812 -27.2817
lclavicle 1.82882e-014 -9.54166e-015
lhumerus 21.8347 -21.0424 74.8526
lradius 119.985
lwrist -13.3268
lhand 15.2917 37.0846
lfingers 7.12502
lthumb 40.1261 62.2725
rfemur -33.6693 -7.60338 18.3905
rtibia 54.8648
rfoot -25.4956 -17.2085
rtoes -8.12401
lfemur -35.5332 -4.3013 -20.2747
ltibia 49.8175
lfoot -19.0254 1.73955
ltoes -14.0634
2326
root -0.594707 16.8994 -1.68831 6.38033 12.5048 3.41097
lowerback 22.4254 3.64206 -0.661699
upperback 12.6262 4.70259 -0.0995565
thorax 1.28817 2.39168 -0.697631
lowerneck 7.03432 -4.19087 -4.03861
upperneck -9.11521 -5.59385 5.13546
head -3.99475 -2.88285 2.76626
rclavicle -2.54444e-014 3.10104e-014
rhumerus 27.6981 11.6823 -79.957
rradius 118.498
rwrist 23.945
rhand 18.2312 -2.84076
rfingers 7.12502
rthumb 42.8839 -27.1276
lclavicle -2.54444e-014 3.10104e-014
lhumerus 21.7455 -21.36 75.0325
lradius 120.609
lwrist -13.1708
lhand 15.178 36.9573
lfingers 7.12502
lthumb 40.0192 62.1776
rfemur -33.7433 -7.5242 18.3729
rtibia 54.961
rfoot -25.4942 -17.2088
rtoes -7.93276
lfemur -35.5891 -4.21186 -20.2984
ltibia 49.927
lfoot -19.0774 1.71331
ltoes -14.1063
2327
root -0.584382 16.8946 -1.69237 6.40767 12.4487 3.34941
lowerback 22.4637 3.74255 -0.290781
upperback 12.6236 4.89673 -0.172615
thorax 1.30567 2.51176 -1.02427
lowerneck 7.06916 -4.43761 -3.53093
upperneck -9.12912 -5.87788 5.06474
head -4.00599 -3.03871 2.66498
rclavicle 6.36111e-015 -2.70347e-014
rhumerus 28.2737 10.7718 -80.1878
rradius 116.968
rwrist 24.0018
rhand 18.5088 -2.79751
rfingers 7.12502
rthumb 43.1435 -26.9925
lclavicle 6.36111e-015 -2.70347e-014
lhumerus 21.8082 -22.049 75.0666
lradius 121.46
lwrist -13.1271
lhand 15.5865 37.0709
lfingers 7.12502
lthumb 40.4035 62.174
rfemur -33.8519 -7.51757 18.4088
rtibia 55.0167
rfoot -25.3947 -17.2396
rtoes -8.1606
lfemur -35.7011 -4.14342 -20.2848
ltibia 50.0109
lfoot -19.1111 1.73336
ltoes -14.3744
2328
root -0.571274 16.895 -1.69849 6.48739 12.4006 3.36012
lowerback 22.4795 3.77856 -0.0490789
upperback 12.6007 4.98508 -0.220101
thorax 1.29903 2.57055 -1.22943
lowerneck 7.08067 -4.58883 -3.37047
upperneck -9.11902 -6.06206 5.09062
head -3.9988 -3.13727 2.65343
rclavicle -1.82882e-014 1.98785e-014
rhumerus 28.5769 10.2989 -80.491
rradius 115.516
rwrist 24.2675
rhand 18.1892 -2.53691
rfingers 7.12502
rthumb 42.8446 -26.8375
lclavicle -1.82882e-014 1.98785e-014
lhumerus 21.8825 -22.577 75.0003
lradius 122.539
lwrist -12.6082
lhand 15.4947 37.4132
lfingers 7.12502
lthumb 40.3171 62.5428
rfemur -33.9695 -7.51003 18.3502
rtibia 55.009
rfoot -25.3077 -17.2123
rtoes -8.2205
lfemur -35.8159 -4.1356 -20.3526
ltibia 50.0232
lfoot -19.1358 1.79999
ltoes -14.2762
2329
root -0.561896 16.9001 -1.70342 6.55317 12.3759 3.35098
lowerback 22.5148 3.78303 0.0890605
upperback 12.5688 5.01473 -0.209254
thorax 1.25771 2.59153 -1.30487
lowerneck 7.04728 -4.68273 -3.37713
upperneck -9.04331 -6.18663 5.12922
head -3.95751 -3.20068 2.66898
rclavicle -2.38542e-015 7.95139e-016
rhumerus 28.5489 10.1781 -80.8798
rradius 114.16
rwrist 25.0087
rhand 17.3105 -2.41174
rfingers 7.12502
rthumb 42.0218 -26.9945
lclavicle -2.38542e-015 7.95139e-016
lhumerus 22.0023 -23.0351 74.8268
lradius 123.384
lwrist -11.7644
lhand 14.6716 37.5577
lfingers 7.12502
lthumb 39.5424 62.9202
rfemur -34.0131 -7.47327 18.3296
rtibia 54.9324
rfoot -25.244 -17.2715
rtoes -8.67193
lfemur -35.8697 -4.14041 -20.3746
ltibia 49.968
lfoot -19.0966 1.99536
ltoes -15.0334
2330
root -0.557472 16.9086 -1.7054 6.58318 12.3593 3.42765
lowerback 22.6338 3.82647 0.102889
upperback 12.502 5.07016 -0.229864
thorax 1.13053 2.61941 -1.35743
lowerneck 7.05431 -4.78329 -3.21308
upperneck -8.92678 -6.31089 5.08224
head -3.91726 -3.2659 2.62487
rclavicle 6.36111e-015 -3.97569e-014
rhumerus 28.3864 9.96622 -81.2824
rradius 112.692
rwrist 25.8551
rhand 16.8495 -2.27264
rfingers 7.12502
rthumb 41.5896 -26.9987
lclavicle 6.36111e-015 -3.97569e-014
lhumerus 22.1755 -23.3643 74.6445
lradius 124.062
lwrist -11.1484
lhand 14.3557 37.6685
lfingers 7.12502
lthumb 39.2449 63.1179
rfemur -33.9577 -7.41641 18.2269
rtibia 54.7903
rfoot -25.1126 -17.4108
rtoes -9.12751
lfemur -35.8014 -4.11359 -20.4883
ltibia 49.8308
lfoot -19.0201 2.21388
ltoes -15.9915
2331
root -0.552064 16.9192 -1.70826 6.62219 12.3639 3.45265
lowerback 22.7584 3.82504 0.150524
upperback 12.4173 5.07426 -0.231823
thorax 0.980518 2.622 -1.39987
lowerneck 7.04574 -4.82847 -3.11556
upperneck -8.81951 -6.37297 4.9759
head -3.8804 -3.29486 2.56947
rclavicle -6.04305e-014 -2.54444e-014
rhumerus 28.2184 9.72372 -81.6506
rradius 111.297
rwrist 26.077
rhand 17.3351 -1.91415
rfingers 7.12502
rthumb 42.0449 -26.4891
lclavicle -6.04305e-014 -2.54444e-014
lhumerus 22.2979 -23.4653 74.6387
lradius 124.784
lwrist -10.8175
lhand 14.545 37.727
lfingers 7.12502
lthumb 39.4232 63.1245
rfemur -33.8978 -7.37286 18.182
rtibia 54.5955
rfoot -24.9499 -17.5597
rtoes -9.46465
lfemur -35.7462 -4.13124 -20.5309
ltibia 49.6408
lfoot -18.8991 2.1314
ltoes -15.4905
